<svg preserveAspectRatio="none" width="100%" height="100%" overflow="visible" style="display: block;" viewBox="0 0 19 22" fill="none" xmlns="http://www.w3.org/2000/svg">
<g id="Vector">
<path d="M17.744 9.86943C17.6627 9.95078 17.5662 10.0153 17.46 10.0593C17.3538 10.1034 17.2399 10.126 17.1249 10.126C17.0099 10.126 16.8961 10.1034 16.7899 10.0593C16.6836 10.0153 16.5871 9.95078 16.5059 9.86943L10.1252 3.48761V20.625C10.1252 20.8571 10.033 21.0796 9.86888 21.2437C9.70479 21.4078 9.48224 21.5 9.25018 21.5C9.01813 21.5 8.79558 21.4078 8.63149 21.2437C8.4674 21.0796 8.37521 20.8571 8.37521 20.625V3.48761L1.99448 9.86943C1.8303 10.0336 1.60763 10.1258 1.37544 10.1258C1.14326 10.1258 0.92058 10.0336 0.756399 9.86943C0.592219 9.70525 0.499984 9.48257 0.499984 9.25039C0.499984 9.0182 0.592219 8.79552 0.756399 8.63134L8.63114 0.756601C8.7124 0.675249 8.8089 0.610712 8.91512 0.56668C9.02134 0.522648 9.1352 0.499984 9.25018 0.499984C9.36517 0.499984 9.47903 0.522648 9.58525 0.56668C9.69147 0.610712 9.78797 0.675249 9.86923 0.756601L17.744 8.63134C17.8253 8.7126 17.8899 8.8091 17.9339 8.91532C17.9779 9.02154 18.0006 9.1354 18.0006 9.25039C18.0006 9.36537 17.9779 9.47923 17.9339 9.58545C17.8899 9.69167 17.8253 9.78817 17.744 9.86943Z" fill="#1F1F1F"/>
<path d="M17.744 9.86943C17.6627 9.95078 17.5662 10.0153 17.46 10.0593C17.3538 10.1034 17.2399 10.126 17.1249 10.126C17.0099 10.126 16.8961 10.1034 16.7899 10.0593C16.6836 10.0153 16.5871 9.95078 16.5059 9.86943L10.1252 3.48761V20.625C10.1252 20.8571 10.033 21.0796 9.86888 21.2437C9.70479 21.4078 9.48224 21.5 9.25018 21.5C9.01813 21.5 8.79558 21.4078 8.63149 21.2437C8.4674 21.0796 8.37521 20.8571 8.37521 20.625V3.48761L1.99448 9.86943C1.8303 10.0336 1.60763 10.1258 1.37544 10.1258C1.14326 10.1258 0.92058 10.0336 0.756399 9.86943C0.592219 9.70525 0.499984 9.48257 0.499984 9.25039C0.499984 9.0182 0.592219 8.79552 0.756399 8.63134L8.63114 0.756601C8.7124 0.675249 8.8089 0.610712 8.91512 0.56668C9.02134 0.522648 9.1352 0.499984 9.25018 0.499984C9.36517 0.499984 9.47903 0.522648 9.58525 0.56668C9.69147 0.610712 9.78797 0.675249 9.86923 0.756601L17.744 8.63134C17.8253 8.7126 17.8899 8.8091 17.9339 8.91532C17.9779 9.02154 18.0006 9.1354 18.0006 9.25039C18.0006 9.36537 17.9779 9.47923 17.9339 9.58545C17.8899 9.69167 17.8253 9.78817 17.744 9.86943Z" fill="white" fill-opacity="0.2"/>
<path d="M17.744 9.86943C17.6627 9.95078 17.5662 10.0153 17.46 10.0593C17.3538 10.1034 17.2399 10.126 17.1249 10.126C17.0099 10.126 16.8961 10.1034 16.7899 10.0593C16.6836 10.0153 16.5871 9.95078 16.5059 9.86943L10.1252 3.48761V20.625C10.1252 20.8571 10.033 21.0796 9.86888 21.2437C9.70479 21.4078 9.48224 21.5 9.25018 21.5C9.01813 21.5 8.79558 21.4078 8.63149 21.2437C8.4674 21.0796 8.37521 20.8571 8.37521 20.625V3.48761L1.99448 9.86943C1.8303 10.0336 1.60763 10.1258 1.37544 10.1258C1.14326 10.1258 0.92058 10.0336 0.756399 9.86943C0.592219 9.70525 0.499984 9.48257 0.499984 9.25039C0.499984 9.0182 0.592219 8.79552 0.756399 8.63134L8.63114 0.756601C8.7124 0.675249 8.8089 0.610712 8.91512 0.56668C9.02134 0.522648 9.1352 0.499984 9.25018 0.499984C9.36517 0.499984 9.47903 0.522648 9.58525 0.56668C9.69147 0.610712 9.78797 0.675249 9.86923 0.756601L17.744 8.63134C17.8253 8.7126 17.8899 8.8091 17.9339 8.91532C17.9779 9.02154 18.0006 9.1354 18.0006 9.25039C18.0006 9.36537 17.9779 9.47923 17.9339 9.58545C17.8899 9.69167 17.8253 9.78817 17.744 9.86943Z" fill="white" fill-opacity="0.2"/>
<path d="M17.744 9.86943C17.6627 9.95078 17.5662 10.0153 17.46 10.0593C17.3538 10.1034 17.2399 10.126 17.1249 10.126C17.0099 10.126 16.8961 10.1034 16.7899 10.0593C16.6836 10.0153 16.5871 9.95078 16.5059 9.86943L10.1252 3.48761V20.625C10.1252 20.8571 10.033 21.0796 9.86888 21.2437C9.70479 21.4078 9.48224 21.5 9.25018 21.5C9.01813 21.5 8.79558 21.4078 8.63149 21.2437C8.4674 21.0796 8.37521 20.8571 8.37521 20.625V3.48761L1.99448 9.86943C1.8303 10.0336 1.60763 10.1258 1.37544 10.1258C1.14326 10.1258 0.92058 10.0336 0.756399 9.86943C0.592219 9.70525 0.499984 9.48257 0.499984 9.25039C0.499984 9.0182 0.592219 8.79552 0.756399 8.63134L8.63114 0.756601C8.7124 0.675249 8.8089 0.610712 8.91512 0.56668C9.02134 0.522648 9.1352 0.499984 9.25018 0.499984C9.36517 0.499984 9.47903 0.522648 9.58525 0.56668C9.69147 0.610712 9.78797 0.675249 9.86923 0.756601L17.744 8.63134C17.8253 8.7126 17.8899 8.8091 17.9339 8.91532C17.9779 9.02154 18.0006 9.1354 18.0006 9.25039C18.0006 9.36537 17.9779 9.47923 17.9339 9.58545C17.8899 9.69167 17.8253 9.78817 17.744 9.86943Z" fill="white" fill-opacity="0.2"/>
<path d="M17.744 9.86943C17.6627 9.95078 17.5662 10.0153 17.46 10.0593C17.3538 10.1034 17.2399 10.126 17.1249 10.126C17.0099 10.126 16.8961 10.1034 16.7899 10.0593C16.6836 10.0153 16.5871 9.95078 16.5059 9.86943L10.1252 3.48761V20.625C10.1252 20.8571 10.033 21.0796 9.86888 21.2437C9.70479 21.4078 9.48224 21.5 9.25018 21.5C9.01813 21.5 8.79558 21.4078 8.63149 21.2437C8.4674 21.0796 8.37521 20.8571 8.37521 20.625V3.48761L1.99448 9.86943C1.8303 10.0336 1.60763 10.1258 1.37544 10.1258C1.14326 10.1258 0.92058 10.0336 0.756399 9.86943C0.592219 9.70525 0.499984 9.48257 0.499984 9.25039C0.499984 9.0182 0.592219 8.79552 0.756399 8.63134L8.63114 0.756601C8.7124 0.675249 8.8089 0.610712 8.91512 0.56668C9.02134 0.522648 9.1352 0.499984 9.25018 0.499984C9.36517 0.499984 9.47903 0.522648 9.58525 0.56668C9.69147 0.610712 9.78797 0.675249 9.86923 0.756601L17.744 8.63134C17.8253 8.7126 17.8899 8.8091 17.9339 8.91532C17.9779 9.02154 18.0006 9.1354 18.0006 9.25039C18.0006 9.36537 17.9779 9.47923 17.9339 9.58545C17.8899 9.69167 17.8253 9.78817 17.744 9.86943Z" stroke="var(--stroke-0, #1F1F1F)" stroke-width="0.999967"/>
<path d="M17.744 9.86943C17.6627 9.95078 17.5662 10.0153 17.46 10.0593C17.3538 10.1034 17.2399 10.126 17.1249 10.126C17.0099 10.126 16.8961 10.1034 16.7899 10.0593C16.6836 10.0153 16.5871 9.95078 16.5059 9.86943L10.1252 3.48761V20.625C10.1252 20.8571 10.033 21.0796 9.86888 21.2437C9.70479 21.4078 9.48224 21.5 9.25018 21.5C9.01813 21.5 8.79558 21.4078 8.63149 21.2437C8.4674 21.0796 8.37521 20.8571 8.37521 20.625V3.48761L1.99448 9.86943C1.8303 10.0336 1.60763 10.1258 1.37544 10.1258C1.14326 10.1258 0.92058 10.0336 0.756399 9.86943C0.592219 9.70525 0.499984 9.48257 0.499984 9.25039C0.499984 9.0182 0.592219 8.79552 0.756399 8.63134L8.63114 0.756601C8.7124 0.675249 8.8089 0.610712 8.91512 0.56668C9.02134 0.522648 9.1352 0.499984 9.25018 0.499984C9.36517 0.499984 9.47903 0.522648 9.58525 0.56668C9.69147 0.610712 9.78797 0.675249 9.86923 0.756601L17.744 8.63134C17.8253 8.7126 17.8899 8.8091 17.9339 8.91532C17.9779 9.02154 18.0006 9.1354 18.0006 9.25039C18.0006 9.36537 17.9779 9.47923 17.9339 9.58545C17.8899 9.69167 17.8253 9.78817 17.744 9.86943Z" stroke="var(--stroke-1, white)" stroke-opacity="0.2" stroke-width="0.999967"/>
<path d="M17.744 9.86943C17.6627 9.95078 17.5662 10.0153 17.46 10.0593C17.3538 10.1034 17.2399 10.126 17.1249 10.126C17.0099 10.126 16.8961 10.1034 16.7899 10.0593C16.6836 10.0153 16.5871 9.95078 16.5059 9.86943L10.1252 3.48761V20.625C10.1252 20.8571 10.033 21.0796 9.86888 21.2437C9.70479 21.4078 9.48224 21.5 9.25018 21.5C9.01813 21.5 8.79558 21.4078 8.63149 21.2437C8.4674 21.0796 8.37521 20.8571 8.37521 20.625V3.48761L1.99448 9.86943C1.8303 10.0336 1.60763 10.1258 1.37544 10.1258C1.14326 10.1258 0.92058 10.0336 0.756399 9.86943C0.592219 9.70525 0.499984 9.48257 0.499984 9.25039C0.499984 9.0182 0.592219 8.79552 0.756399 8.63134L8.63114 0.756601C8.7124 0.675249 8.8089 0.610712 8.91512 0.56668C9.02134 0.522648 9.1352 0.499984 9.25018 0.499984C9.36517 0.499984 9.47903 0.522648 9.58525 0.56668C9.69147 0.610712 9.78797 0.675249 9.86923 0.756601L17.744 8.63134C17.8253 8.7126 17.8899 8.8091 17.9339 8.91532C17.9779 9.02154 18.0006 9.1354 18.0006 9.25039C18.0006 9.36537 17.9779 9.47923 17.9339 9.58545C17.8899 9.69167 17.8253 9.78817 17.744 9.86943Z" stroke="var(--stroke-2, white)" stroke-opacity="0.2" stroke-width="0.999967"/>
<path d="M17.744 9.86943C17.6627 9.95078 17.5662 10.0153 17.46 10.0593C17.3538 10.1034 17.2399 10.126 17.1249 10.126C17.0099 10.126 16.8961 10.1034 16.7899 10.0593C16.6836 10.0153 16.5871 9.95078 16.5059 9.86943L10.1252 3.48761V20.625C10.1252 20.8571 10.033 21.0796 9.86888 21.2437C9.70479 21.4078 9.48224 21.5 9.25018 21.5C9.01813 21.5 8.79558 21.4078 8.63149 21.2437C8.4674 21.0796 8.37521 20.8571 8.37521 20.625V3.48761L1.99448 9.86943C1.8303 10.0336 1.60763 10.1258 1.37544 10.1258C1.14326 10.1258 0.92058 10.0336 0.756399 9.86943C0.592219 9.70525 0.499984 9.48257 0.499984 9.25039C0.499984 9.0182 0.592219 8.79552 0.756399 8.63134L8.63114 0.756601C8.7124 0.675249 8.8089 0.610712 8.91512 0.56668C9.02134 0.522648 9.1352 0.499984 9.25018 0.499984C9.36517 0.499984 9.47903 0.522648 9.58525 0.56668C9.69147 0.610712 9.78797 0.675249 9.86923 0.756601L17.744 8.63134C17.8253 8.7126 17.8899 8.8091 17.9339 8.91532C17.9779 9.02154 18.0006 9.1354 18.0006 9.25039C18.0006 9.36537 17.9779 9.47923 17.9339 9.58545C17.8899 9.69167 17.8253 9.78817 17.744 9.86943Z" stroke="var(--stroke-3, white)" stroke-opacity="0.2" stroke-width="0.999967"/>
</g>
</svg>
