<svg width="20" height="20" viewBox="0 0 20 20" fill="none" xmlns="http://www.w3.org/2000/svg">
<path d="M16.875 3.75H3.12502C2.7935 3.75 2.47556 3.8817 2.24114 4.11612C2.00672 4.35054 1.87502 4.66848 1.87502 5V17.5C1.87358 17.7384 1.94101 17.9721 2.06921 18.173C2.19741 18.374 2.38092 18.5336 2.59768 18.6328C2.76286 18.7097 2.94281 18.7497 3.12502 18.75C3.41846 18.7493 3.70217 18.6447 3.9258 18.4547L3.93284 18.4492L6.4844 16.25H16.875C17.2065 16.25 17.5245 16.1183 17.7589 15.8839C17.9933 15.6495 18.125 15.3315 18.125 15V5C18.125 4.66848 17.9933 4.35054 17.7589 4.11612C17.5245 3.8817 17.2065 3.75 16.875 3.75ZM16.875 15H6.25002C6.09995 15.0001 5.95492 15.0542 5.84143 15.1523L3.12502 17.5V5H16.875V15Z" fill="white"/>
<path d="M12.5 10.124C12.5 10.2898 12.4342 10.4488 12.3169 10.566C12.1997 10.6832 12.0408 10.749 11.875 10.749H10.625V11.999C10.625 12.1648 10.5592 12.3238 10.4419 12.441C10.3247 12.5582 10.1658 12.624 10 12.624C9.83424 12.624 9.67527 12.5582 9.55806 12.441C9.44085 12.3238 9.375 12.1648 9.375 11.999V10.749H8.125C7.95924 10.749 7.80027 10.6832 7.68306 10.566C7.56585 10.4488 7.5 10.2898 7.5 10.124C7.5 9.95826 7.56585 9.79929 7.68306 9.68208C7.80027 9.56487 7.95924 9.49902 8.125 9.49902H9.375V8.24902C9.375 8.08326 9.44085 7.92429 9.55806 7.80708C9.67527 7.68987 9.83424 7.62402 10 7.62402C10.1658 7.62402 10.3247 7.68987 10.4419 7.80708C10.5592 7.92429 10.625 8.08326 10.625 8.24902V9.49902H11.875C12.0408 9.49902 12.1997 9.56487 12.3169 9.68208C12.4342 9.79929 12.5 9.95826 12.5 10.124Z" fill="white"/>
</svg>
