<svg width="412" height="148" viewBox="0 0 412 148" fill="none" xmlns="http://www.w3.org/2000/svg">
<path d="M80.7129 91.9211C80.7129 87.2518 81.6579 83.1662 83.5478 79.6642C85.4378 76.1067 88.0226 73.3551 91.3022 71.4096C94.6374 69.464 98.3339 68.4913 102.392 68.4913C106.394 68.4913 109.868 69.3529 112.814 71.0761C115.76 72.7992 117.956 74.9671 119.401 77.5797V69.2417H127.072V114.934H119.401V106.429C117.901 109.097 115.649 111.321 112.648 113.1C109.701 114.823 106.255 115.685 102.308 115.685C98.2506 115.685 94.5818 114.684 91.3022 112.683C88.0226 110.682 85.4378 107.875 83.5478 104.261C81.6579 100.648 80.7129 96.5348 80.7129 91.9211ZM119.401 92.0045C119.401 88.5581 118.707 85.5564 117.317 82.9994C115.927 80.4424 114.037 78.4969 111.647 77.1628C109.312 75.7731 106.728 75.0783 103.893 75.0783C101.058 75.0783 98.4729 75.7453 96.1383 77.0794C93.8036 78.4135 91.9415 80.3591 90.5518 82.9161C89.1621 85.473 88.4673 88.4747 88.4673 91.9211C88.4673 95.4231 89.1621 98.4804 90.5518 101.093C91.9415 103.65 93.8036 105.623 96.1383 107.013C98.4729 108.347 101.058 109.014 103.893 109.014C106.728 109.014 109.312 108.347 111.647 107.013C114.037 105.623 115.927 103.65 117.317 101.093C118.707 98.4804 119.401 95.4509 119.401 92.0045ZM130.389 91.9211C130.389 87.2518 131.334 83.1662 133.224 79.6642C135.114 76.1067 137.699 73.3551 140.979 71.4096C144.314 69.464 148.01 68.4913 152.068 68.4913C156.07 68.4913 159.545 69.3529 162.491 71.0761C165.437 72.7992 167.633 74.9671 169.078 77.5797V69.2417H176.749V114.934H169.078V106.429C167.577 109.097 165.326 111.321 162.324 113.1C159.378 114.823 155.931 115.685 151.985 115.685C147.927 115.685 144.258 114.684 140.979 112.683C137.699 110.682 135.114 107.875 133.224 104.261C131.334 100.648 130.389 96.5348 130.389 91.9211ZM169.078 92.0045C169.078 88.5581 168.383 85.5564 166.993 82.9994C165.604 80.4424 163.714 78.4969 161.323 77.1628C158.989 75.7731 156.404 75.0783 153.569 75.0783C150.734 75.0783 148.149 75.7453 145.815 77.0794C143.48 78.4135 141.618 80.3591 140.228 82.9161C138.839 85.473 138.144 88.4747 138.144 91.9211C138.144 95.4231 138.839 98.4804 140.228 101.093C141.618 103.65 143.48 105.623 145.815 107.013C148.149 108.347 150.734 109.014 153.569 109.014C156.404 109.014 158.989 108.347 161.323 107.013C163.714 105.623 165.604 103.65 166.993 101.093C168.383 98.4804 169.078 95.4509 169.078 92.0045ZM190.488 53.2327V114.934H182.901V53.2327H190.488ZM193.915 91.9211C193.915 87.2518 194.86 83.1662 196.75 79.6642C198.64 76.1067 201.224 73.3551 204.504 71.4096C207.839 69.464 211.536 68.4913 215.594 68.4913C219.596 68.4913 223.07 69.3529 226.016 71.0761C228.962 72.7992 231.158 74.9671 232.603 77.5797V69.2417H240.274V114.934H232.603V106.429C231.102 109.097 228.851 111.321 225.849 113.1C222.903 114.823 219.457 115.685 215.51 115.685C211.452 115.685 207.784 114.684 204.504 112.683C201.224 110.682 198.64 107.875 196.75 104.261C194.86 100.648 193.915 96.5348 193.915 91.9211ZM232.603 92.0045C232.603 88.5581 231.908 85.5564 230.519 82.9994C229.129 80.4424 227.239 78.4969 224.849 77.1628C222.514 75.7731 219.929 75.0783 217.094 75.0783C214.259 75.0783 211.675 75.7453 209.34 77.0794C207.005 78.4135 205.143 80.3591 203.754 82.9161C202.364 85.473 201.669 88.4747 201.669 91.9211C201.669 95.4231 202.364 98.4804 203.754 101.093C205.143 103.65 207.005 105.623 209.34 107.013C211.675 108.347 214.259 109.014 217.094 109.014C219.929 109.014 222.514 108.347 224.849 107.013C227.239 105.623 229.129 103.65 230.519 101.093C231.908 98.4804 232.603 95.4509 232.603 92.0045ZM254.014 77.6631C255.514 75.0505 257.738 72.8826 260.684 71.1594C263.686 69.3807 267.16 68.4913 271.107 68.4913C275.164 68.4913 278.833 69.464 282.113 71.4096C285.448 73.3551 288.061 76.1067 289.951 79.6642C291.84 83.1662 292.785 87.2518 292.785 91.9211C292.785 96.5348 291.84 100.648 289.951 104.261C288.061 107.875 285.448 110.682 282.113 112.683C278.833 114.684 275.164 115.685 271.107 115.685C267.215 115.685 263.769 114.823 260.767 113.1C257.821 111.321 255.57 109.125 254.014 106.513V136.613H246.426V69.2417H254.014V77.6631ZM285.031 91.9211C285.031 88.4747 284.336 85.473 282.947 82.9161C281.557 80.3591 279.667 78.4135 277.277 77.0794C274.942 75.7453 272.357 75.0783 269.522 75.0783C266.743 75.0783 264.158 75.7731 261.768 77.1628C259.433 78.4969 257.543 80.4702 256.098 83.0828C254.708 85.6398 254.014 88.6137 254.014 92.0045C254.014 95.4509 254.708 98.4804 256.098 101.093C257.543 103.65 259.433 105.623 261.768 107.013C264.158 108.347 266.743 109.014 269.522 109.014C272.357 109.014 274.942 108.347 277.277 107.013C279.667 105.623 281.557 103.65 282.947 101.093C284.336 98.4804 285.031 95.4231 285.031 91.9211ZM298.52 115.434C297.075 115.434 295.852 114.934 294.852 113.934C293.851 112.933 293.351 111.71 293.351 110.265C293.351 108.82 293.851 107.597 294.852 106.596C295.852 105.595 297.075 105.095 298.52 105.095C299.91 105.095 301.077 105.595 302.022 106.596C303.023 107.597 303.523 108.82 303.523 110.265C303.523 111.71 303.023 112.933 302.022 113.934C301.077 114.934 299.91 115.434 298.52 115.434ZM304.104 91.9211C304.104 87.2518 305.049 83.1662 306.939 79.6642C308.829 76.1067 311.413 73.3551 314.693 71.4096C318.028 69.464 321.725 68.4913 325.783 68.4913C329.785 68.4913 333.259 69.3529 336.205 71.0761C339.151 72.7992 341.347 74.9671 342.792 77.5797V69.2417H350.463V114.934H342.792V106.429C341.291 109.097 339.04 111.321 336.038 113.1C333.092 114.823 329.646 115.685 325.699 115.685C321.641 115.685 317.973 114.684 314.693 112.683C311.413 110.682 308.829 107.875 306.939 104.261C305.049 100.648 304.104 96.5348 304.104 91.9211ZM342.792 92.0045C342.792 88.5581 342.097 85.5564 340.708 82.9994C339.318 80.4424 337.428 78.4969 335.038 77.1628C332.703 75.7731 330.118 75.0783 327.283 75.0783C324.448 75.0783 321.864 75.7453 319.529 77.0794C317.194 78.4135 315.332 80.3591 313.943 82.9161C312.553 85.473 311.858 88.4747 311.858 91.9211C311.858 95.4231 312.553 98.4804 313.943 101.093C315.332 103.65 317.194 105.623 319.529 107.013C321.864 108.347 324.448 109.014 327.283 109.014C330.118 109.014 332.703 108.347 335.038 107.013C337.428 105.623 339.318 103.65 340.708 101.093C342.097 98.4804 342.792 95.4509 342.792 92.0045Z" fill="#FFE5CF"/>
<path d="M83.7972 89.2586C83.7972 90.157 83.7972 95.6773 83.7972 95.6773H73.7088C68.8281 95.6773 63.3433 95.3288 60.7124 90.525C57.9255 85.4376 59.7011 79.1812 59.1316 73.689C57.6007 69.9828 52.6919 70.7773 52.2891 74.8212L52.2934 110.831C50.4702 123.567 32.383 122.948 31.3414 110.13L31.3241 60.293C30.5229 56.2512 24.8367 56.4677 24.4166 60.6264C23.9251 68.9502 25.0641 78.0122 24.421 86.2494C24.1048 90.2998 19.759 95.6773 15.4975 95.6773H6.10352e-05V88.7542H14.456C15.87 88.7542 17.4507 86.7387 17.468 85.3597C17.9985 76.9861 16.8249 67.8634 17.481 59.5808C18.3883 48.1288 36.1009 46.9251 38.2165 58.9421C38.721 75.9145 38.3031 92.9669 38.4287 109.967C38.944 114.072 44.5804 114.195 45.3167 110.089L45.3643 73.6111C46.4383 64.4581 58.0468 60.9186 63.9756 68.1535C66.3964 71.1085 66.4744 75.068 66.3683 78.7028C66.2882 81.4651 65.1643 86.7279 68.2088 88.3493C68.6051 88.5593 70.5496 89.2975 72.8903 89.4296C77.5025 89.6894 83.7972 89.2369 83.7972 89.2607V89.2586Z" fill="#FFE5CF"/>
<path d="M364.906 68.2037V114.697H358.836V68.2037H364.906Z" fill="#FFE5CF"/>
<path d="M373.703 36.1352L376.705 41.5549L365.115 46.391L376.788 51.1437L373.62 56.7301L363.53 49.3927L364.865 61.9831H358.611L359.862 49.3927L349.773 56.8135L346.521 51.1437L358.111 46.3076L346.521 41.6383L349.606 36.0518L359.945 43.4727L358.611 30.7989H364.948L363.53 43.4727L373.703 36.1352Z" fill="#FFE5CF"/>
</svg>
