<svg width="20" height="20" viewBox="0 0 20 20" fill="none" xmlns="http://www.w3.org/2000/svg">
<path d="M17.9416 17.0575L14.0299 13.1466C15.1637 11.7854 15.729 10.0395 15.6084 8.27214C15.4877 6.50475 14.6903 4.85192 13.3821 3.65748C12.0738 2.46304 10.3554 1.81895 8.58437 1.8592C6.81333 1.89945 5.12598 2.62094 3.87334 3.87358C2.6207 5.12622 1.89921 6.81357 1.85896 8.58462C1.81871 10.3557 2.4628 12.074 3.65724 13.3823C4.85168 14.6906 6.50451 15.488 8.27189 15.6086C10.0393 15.7293 11.7852 15.1639 13.1463 14.0302L17.0573 17.9419C17.1153 17.9999 17.1843 18.046 17.2601 18.0774C17.336 18.1089 17.4173 18.125 17.4994 18.125C17.5816 18.125 17.6629 18.1089 17.7388 18.0774C17.8146 18.046 17.8836 17.9999 17.9416 17.9419C17.9997 17.8838 18.0458 17.8149 18.0772 17.739C18.1086 17.6631 18.1248 17.5818 18.1248 17.4997C18.1248 17.4176 18.1086 17.3363 18.0772 17.2604C18.0458 17.1845 17.9997 17.1156 17.9416 17.0575ZM3.12445 8.74969C3.12445 7.63717 3.45435 6.54963 4.07243 5.62461C4.69051 4.69958 5.56902 3.97861 6.59685 3.55287C7.62469 3.12712 8.75569 3.01573 9.84683 3.23277C10.938 3.44981 11.9403 3.98554 12.7269 4.77221C13.5136 5.55888 14.0493 6.56116 14.2664 7.65231C14.4834 8.74345 14.372 9.87445 13.9463 10.9023C13.5205 11.9301 12.7996 12.8086 11.8745 13.4267C10.9495 14.0448 9.86197 14.3747 8.74945 14.3747C7.25811 14.373 5.82833 13.7799 4.7738 12.7253C3.71926 11.6708 3.1261 10.241 3.12445 8.74969Z" fill="white"/>
</svg>
