<svg preserveAspectRatio="none" width="100%" height="100%" overflow="visible" style="display: block;" viewBox="0 0 28 28" fill="none" xmlns="http://www.w3.org/2000/svg">
<g id="Cloud Upload">
<path id="Vector" d="M19.2998 17.928L17.3151 15.9421V22.51C17.3151 22.7396 17.2239 22.9598 17.0615 23.1222C16.8991 23.2845 16.6789 23.3757 16.4493 23.3757C16.2197 23.3757 15.9995 23.2845 15.8371 23.1222C15.6748 22.9598 15.5835 22.7396 15.5835 22.51V15.9421L13.5988 17.928C13.5184 18.0084 13.4229 18.0722 13.3178 18.1157C13.2127 18.1593 13.1 18.1817 12.9863 18.1817C12.8725 18.1817 12.7599 18.1593 12.6548 18.1157C12.5497 18.0722 12.4542 18.0084 12.3737 17.928C12.2933 17.8475 12.2295 17.752 12.186 17.6469C12.1424 17.5418 12.12 17.4292 12.12 17.3154C12.12 17.2017 12.1424 17.089 12.186 16.9839C12.2295 16.8788 12.2933 16.7833 12.3737 16.7029L15.8368 13.2399C15.9172 13.1594 16.0127 13.0955 16.1178 13.052C16.2229 13.0084 16.3355 12.986 16.4493 12.986C16.5631 12.986 16.6757 13.0084 16.7808 13.052C16.8859 13.0955 16.9814 13.1594 17.0618 13.2399L20.5249 16.7029C20.6053 16.7833 20.6691 16.8788 20.7126 16.9839C20.7562 17.089 20.7786 17.2017 20.7786 17.3154C20.7786 17.4292 20.7562 17.5418 20.7126 17.6469C20.6691 17.752 20.6053 17.8475 20.5249 17.928C20.4444 18.0084 20.3489 18.0722 20.2438 18.1157C20.1387 18.1593 20.0261 18.1817 19.9123 18.1817C19.7986 18.1817 19.6859 18.1593 19.5808 18.1157C19.4757 18.0722 19.3803 18.0084 19.2998 17.928ZM17.3151 4.32905C15.5463 4.33039 13.8127 4.82385 12.3084 5.75424C10.8041 6.68462 9.5883 8.01523 8.79708 9.59719C7.85505 9.45877 6.8946 9.51606 5.97571 9.76549C5.05681 10.0149 4.19922 10.4511 3.45649 11.0469C2.71375 11.6427 2.10183 12.3852 1.65894 13.228C1.21605 14.0709 0.95171 14.996 0.88242 15.9457C0.81313 16.8953 0.940383 17.849 1.25623 18.7472C1.57208 19.6454 2.06974 20.4689 2.71813 21.1662C3.36651 21.8634 4.1517 22.4195 5.02466 22.7997C5.89761 23.1799 6.83957 23.376 7.79172 23.3757H12.1205C12.3501 23.3757 12.5703 23.2845 12.7327 23.1222C12.8951 22.9598 12.9863 22.7396 12.9863 22.51C12.9863 22.2804 12.8951 22.0602 12.7327 21.8978C12.5703 21.7354 12.3501 21.6442 12.1205 21.6442H7.79172C6.41404 21.6442 5.09278 21.0969 4.11861 20.1228C3.14445 19.1486 2.59716 17.8274 2.59716 16.4497C2.59716 15.072 3.14445 13.7507 4.11861 12.7766C5.09278 11.8024 6.41404 11.2551 7.79172 11.2551C7.91076 11.2551 8.0298 11.2551 8.14776 11.2681C7.9111 12.1091 7.79129 12.9787 7.79172 13.8524C7.79172 14.082 7.88293 14.3022 8.04529 14.4646C8.20765 14.6269 8.42786 14.7182 8.65748 14.7182C8.88709 14.7182 9.1073 14.6269 9.26966 14.4646C9.43202 14.3022 9.52324 14.082 9.52324 13.8524C9.52345 12.4477 9.90341 11.0691 10.6229 9.86262C11.3424 8.65614 12.3747 7.6666 13.6105 6.99873C14.8463 6.33086 16.2397 6.0095 17.6432 6.06866C19.0467 6.12782 20.4081 6.5653 21.5833 7.33479C22.7586 8.10429 23.7039 9.17718 24.3193 10.4399C24.9347 11.7027 25.1974 13.1083 25.0794 14.5081C24.9614 15.9079 24.4671 17.2497 23.649 18.3916C22.8309 19.5335 21.7193 20.433 20.4318 20.9949C20.249 21.0742 20.0991 21.214 20.0074 21.391C19.9158 21.5679 19.8879 21.771 19.9286 21.966C19.9693 22.1611 20.076 22.3361 20.2308 22.4617C20.3855 22.5872 20.5789 22.6555 20.7781 22.655C20.8974 22.6549 21.0154 22.6298 21.1244 22.5814C23.1301 21.7065 24.7733 20.1676 25.7777 18.2235C26.782 16.2794 27.0863 14.0488 26.6392 11.9068C26.1921 9.76472 25.0211 7.84197 23.323 6.46191C21.6248 5.08185 19.5033 4.32867 17.3151 4.32905Z" fill="var(--fill-0, white)"/>
</g>
</svg>
